<svg xmlns="http://www.w3.org/2000/svg" xmlns:xlink="http://www.w3.org/1999/xlink" viewBox="0,0,256,256" width="64px" height="64px" fill-rule="nonzero"><g fill="#000000" fill-rule="nonzero" stroke="none" stroke-width="1" stroke-linecap="butt" stroke-linejoin="miter" stroke-miterlimit="10" stroke-dasharray="" stroke-dashoffset="0" font-family="none" font-weight="none" font-size="none" text-anchor="none" style="mix-blend-mode: normal"><g transform="scale(4,4)"><path d="M16.90039,5c-11.93,0 -12.53039,14.44 -16.90039,20c0,2.16466 4.68696,8.19777 10.33203,10.45117l-0.10351,2.83008l-7.88867,2.86914c1.46,2.65 7.46016,5.84961 14.66016,5.84961c0.86,0 1.7093,-0.05086 2.5293,-0.13086c-0.29,-0.5 -0.53953,-1.01906 -0.76953,-1.53906c-0.47,-0.42 -0.88047,-0.90016 -1.23047,-1.41016c-0.17,0.01 -0.3493,0.00977 -0.5293,0.00977c-1.6651,0 -2.97216,-0.27524 -3.95703,-0.59766l0.2207,-5.96289c0.99846,0.7129 1.95935,1.22553 2.74609,1.46094c0.03,-1.12 0.30063,-2.09992 0.64063,-2.91992c-1.41,-0.54 -5.2007,-3.18109 -6.7207,-7.87109l-0.20898,-0.58984l-0.53125,-0.2793c-0.13,-0.07 -1.18945,-0.68008 -1.18945,-2.08008c0,-0.87 0.60938,-1.58008 0.60938,-1.58008l0.39063,-0.42969v-2.79102c0.63,-0.28 6.98,-3.13906 10,-7.28906l1,3c2.38,0 3,-2 3,-2c0.84,1.26 1.35063,3.40992 1.64063,5.16992c2.12,-0.97 4.46977,-1.51055 6.75977,-1.81055c-2.01,-5.95 -6.25,-12.35937 -14.5,-12.35937zM49,5c-11.75,0 -14.00023,7.75055 -13.99023,12.06055c1.3,-0.05 2.52008,-0.06055 3.58008,-0.06055c0.3,-1.22 0.75016,-2.34 1.41016,-3c0,0 3.14,1 7,1c3.86,0 6,-1 6,-1c3,2.57 3,9 3,9h0.00781l0.00195,0.08008l0.37109,0.41992c0.01,0.01 0.61914,0.71984 0.61914,1.58984c0,1.4 -1.05992,2.01031 -1.16992,2.07031l-0.56055,0.2793l-0.19922,0.59961c-1.54,4.74 -6.10008,7.52094 -7.08008,7.96094h-0.99023h-0.71094c0.38,0.81 0.69094,1.82 0.71094,3h1.2207c0.55689,0 1.98892,-0.68775 3.60547,-1.90234l0.39648,5.73047c-0.96043,0.47617 -2.69959,1.10156 -5.22266,1.10156c-0.61,0 -1.17922,-0.03961 -1.69922,-0.09961c-0.31,0.37 -0.62063,0.66039 -0.89062,0.90039c-0.28,0.68 -0.62,1.35 -1,2c1.15,0.18 2.34984,0.26953 3.58984,0.26953c7.34,0 13.43047,-3.32 14.73047,-6l-6.86328,-3.40234l-0.21289,-3.0918c1.23532,-1.39227 2.36448,-3.07325 3.08594,-5.01562c1.02,-0.73 2.25977,-2.20039 2.25977,-4.40039c0,-1.38 -0.58,-2.47984 -1,-3.08984v-2.5v-1.64062c0,-2.97455 -0.8477,-7.63198 -3.36719,-7.71094c-0.02765,-0.02911 -0.05798,-0.0552 -0.08594,-0.08399l-0.08594,-0.28516c-0.87,-2.84 -3.49094,-4.7793 -6.46094,-4.7793zM39,19c-13,0 -19,3 -19,13v1.5v2.54492c-0.4046,0.54155 -1,1.49341 -1,3.05078c0,2.64342 1.61455,3.86009 2.31055,4.32031c0.73604,1.99821 1.8458,3.68868 3.03711,5.06055l-0.21484,3.12109l-6.86719,3.39844c1.299,2.679 7.39637,6.00391 14.73438,6.00391c7.338,0 13.43538,-3.32491 14.73438,-6.00391l-6.86719,-3.39844l-0.21484,-3.12109c1.19131,-1.37187 2.30107,-3.06234 3.03711,-5.06055c0.696,-0.46021 2.31055,-1.67689 2.31055,-4.32031c0,-1.55737 -0.5954,-2.50923 -1,-3.05078v-2.54492v-1.64258c0,-2.99132 -0.85352,-7.68576 -3.4082,-7.71289c-0.00923,-0.00968 -0.02003,-0.0177 -0.0293,-0.02734zM25,28c0,0 3.143,1 7,1c3.857,0 6,-1 6,-1c3,2.571 3,9 3,9v0.08203l0.39258,0.42969c0,0 0.60742,0.75065 0.60742,1.58398c0,1.5855 -1.16602,2.06055 -1.16602,2.06055l-0.56641,0.2793l-0.19336,0.60156c-0.82749,2.54774 -2.58575,4.6047 -4.2168,6.00586c-0.81552,0.70058 -1.5964,1.23675 -2.17383,1.58203c-0.28872,0.17264 -0.52909,0.298 -0.67773,0.36719c-0.01015,0.0047 -0.0083,0.00361 -0.01758,0.00781h-0.98828h-0.98828c-0.0093,-0.0042 -0.0074,-0.00311 -0.01758,-0.00781c-0.14865,-0.0692 -0.38902,-0.19455 -0.67773,-0.36719c-0.57743,-0.34528 -1.35831,-0.88145 -2.17383,-1.58203c-1.63104,-1.40116 -3.38931,-3.45812 -4.2168,-6.00586l-0.19336,-0.60156l-0.56641,-0.2793c0,0 -1.16602,-0.47505 -1.16602,-2.06055c0,-0.83333 0.60742,-1.58398 0.60742,-1.58398l0.39258,-0.42969v-0.08203c0,0 -0.143,-6.857 2,-9zM27.17383,51.09375c0.58116,0.43857 1.13551,0.82679 1.60156,1.10547c0.36246,0.21673 0.67882,0.38406 0.95313,0.51172c0.13715,0.06383 0.2625,0.11749 0.40039,0.16602c0.13789,0.04853 0.20703,0.12305 0.64844,0.12305h1.22266h1.22266c0.44141,0 0.51055,-0.07452 0.64844,-0.12305c0.13789,-0.04853 0.26324,-0.10218 0.40039,-0.16602c0.2743,-0.12766 0.59067,-0.29498 0.95313,-0.51172c0.46605,-0.27868 1.0204,-0.6669 1.60156,-1.10547l0.39453,5.73242c-0.96064,0.47596 -2.69819,1.09961 -5.2207,1.09961c-2.52251,0 -4.26006,-0.62365 -5.2207,-1.09961z"></path></g></g></svg>