<svg xmlns="http://www.w3.org/2000/svg"  viewBox="0 0 48 48" width="48px" height="48px"><path d="M 24 3 C 12.413858 3 3 12.413866 3 24 C 3 35.586134 12.413858 45 24 45 C 35.586142 45 45 35.586134 45 24 C 45 12.413866 35.586142 3 24 3 z M 24 5 C 34.505263 5 43 13.494744 43 24 C 43 34.505256 34.505263 43 24 43 C 13.494737 43 5 34.505256 5 24 C 5 13.494744 13.494737 5 24 5 z M 22 12 C 20.906937 12 20 12.906937 20 14 L 20 20 L 14 20 C 12.906937 20 12 20.906937 12 22 L 12 26 C 12 27.093063 12.906937 28 14 28 L 20 28 L 20 34 C 20 35.093063 20.906937 36 22 36 L 26 36 C 27.093063 36 28 35.093063 28 34 L 28 28 L 34 28 C 35.093063 28 36 27.093063 36 26 L 36 22 C 36 20.906937 35.093063 20 34 20 L 28 20 L 28 14 C 28 12.906937 27.093063 12 26 12 L 22 12 z M 22 14 L 26 14 L 26 21 A 1.0001 1.0001 0 0 0 27 22 L 34 22 L 34 26 L 27 26 A 1.0001 1.0001 0 0 0 26 27 L 26 34 L 22 34 L 22 27 A 1.0001 1.0001 0 0 0 21 26 L 14 26 L 14 22 L 21 22 A 1.0001 1.0001 0 0 0 22 21 L 22 14 z"/></svg>